/* XPM */
static char * start_active_xpm[] = {
"64 32 8 1",
" 	c #000000",
".	c #101010",
"+	c #737373",
"@	c #313131",
"#	c #A40000",
"$	c #EF2929",
"%	c #CC0000",
"&	c #EEEEEC",
"                                                                ",
" .............................................................. ",
" .............................................................+ ",
" ..@@@@@@@@@@@@@@@@@@@@@@@@@@@@@@@@@@@@@@@@@@@@@@@@@@@@@@@@@@++ ",
" ..@@@@@@@@@@@@@@@@@@@@@@@@@@@@@@@@@@@@@@@@@@@@@@@@@@@@@@@@@@++ ",
" ..@@@@@@@@@@@@@@@@@@@@@@@@@@@@@@@@@@@@@@@@@@@@@@@@@@@@@@@@@@++ ",
" ..@@@@@@@@@@@@@@@@@@@@@@@@@@@@@@@@@@@@@@@@@@@@@@@@@@@@@@@@@@++ ",
" ..@@@@@@@@@@@@@@@@@@@@@@@@@@@@@@@@@@@@@@@@@@@@@@@@@@@@@@@@@@++ ",
" ..@@@@@@@@@@@@@@@@@@@@@@@@@@@@@@@@@@@@@@@@@@@@@@@@@@@@@@@@@@++ ",
" ..@@@@@@#####@@@@@@@@@##@@@@@@@@@@@@@@@@@@@@@@@@@@@@@@@@@@@@++ ",
" ..@@@@@@@#$$$ @@@@@@@#% @@@@@@@@@@@@@@@@@@@@@@@@@@@@@@@@@@@@++ ",
" ..@@@@@@@@#$%# @@@@@#% @@@@@@@@@@@@@@@@@@@@@@@@@@@@@@@@@@@@@++ ",
" ..@@@@@@@@@#$%# @@@#% @+++@++@@@+++++@@++@+++@@++@@@++@@@@@@++ ",
" ..@@@@@@@@@@#$%# @#% @+&&&.&&.@+&&&&&.+&&.&&&.+&&.@+&&.@@@@@++ ",
" ..@@@@@@@@@@@#% @#% @@+&&&&&&&.&&...&&.&&&..&&.&&.@+&&.@@@@@++ ",
" ..@@@@@@@@@@#% @#% @@@+&&.&.&&.&&.++&&.&&.@+&&.&&.@+&&.@@@@@++ ",
" ..@@@@@@@@@#% @#$%# @@+&&.&.&&.&&&&&&&.&&.@+&&.&&.@+&&.@@@@@++ ",
" ..@@@@@@@@#% @@@#$%# @+&&.&.&&.&&.....+&&.@+&&.&&.@+&&.@@@@@++ ",
" ..@@@@@@@#% @@@@@#$%# +&&.&.&&.&&.++&&.&&.@+&&.&&.+&&&.@@@@@++ ",
" ..@@@@@@#% @@@@@@@#### &&.&.&&..&&&&&.+&&.@+&&..&&&.&&.@@@@@++ ",
" ..@@@@@@  @@@@@@@@@     .@.@..@@.....@@..@@@..@@...@..@@@@@@++ ",
" ..@@@@@@@@@@@@@@@@@@@@@@@@@@@@@@@@@@@@@@@@@@@@@@@@@@@@@@@@@@++ ",
" ..@@@@@@@@@@@@@@@@@@@@@@@@@@@@@@@@@@@@@@@@@@@@@@@@@@@@@@@@@@++ ",
" ..@@@@@@@@@@@@@@@@@@@@@@@@@@@@@@@@@@@@@@@@@@@@@@@@@@@@@@@@@@++ ",
" ..@@@@@@@@@@@@@@@@@@@@@@@@@@@@@@@@@@@@@@@@@@@@@@@@@@@@@@@@@@++ ",
" ..@@@@@@@@@@@@@@@@@@@@@@@@@@@@@@@@@@@@@@@@@@@@@@@@@@@@@@@@@@++ ",
" ..@@@@@@@@@@@@@@@@@@@@@@@@@@@@@@@@@@@@@@@@@@@@@@@@@@@@@@@@@@++ ",
" ..@@@@@@@@@@@@@@@@@@@@@@@@@@@@@@@@@@@@@@@@@@@@@@@@@@@@@@@@@@++ ",
" ..@@@@@@@@@@@@@@@@@@@@@@@@@@@@@@@@@@@@@@@@@@@@@@@@@@@@@@@@@@++ ",
" ..++++++++++++++++++++++++++++++++++++++++++++++++++++++++++++ ",
" .+++++++++++++++++++++++++++++++++++++++++++++++++++++++++++++ ",
"                                                                "};
