/* XPM */
static char * app_xpm[] = {
"16 16 12 1",
" 	c None",
".	c #C4A000",
"+	c #000000",
"@	c #FCE94F",
"#	c #EEEEEC",
"$	c #EDD400",
"%	c #204A87",
"&	c #729FCF",
"*	c #EF2929",
"=	c #3465A4",
"-	c #A40000",
";	c #CC0000",
"       .+       ",
"      .@@+      ",
"     .@@@@+     ",
"    .#@@@@#+    ",
"    .$#@@#.+    ",
"    .$$##..+    ",
"   %.$$$...++   ",
"  %&&.$$..+**+  ",
" %&&&&.$.+****+ ",
"%#&&&&#.+#****#+",
"%=#&&#%+-;#**#-+",
"%==##%%+-;;##--+",
"%===%%%+-;;;---+",
" %==%%+  -;;--+ ",
"  %=%+    -;-+  ",
"   %+      -+   "};
