/* XPM */
static char * book_xpm[] = {
"16 16 7 1",
" 	c None",
".	c #BABDB6",
"+	c #EEEEEC",
"@	c #A40000",
"#	c #EF2929",
"$	c #2E3436",
"%	c #000000",
"                ",
"                ",
"    ..          ",
"  ...+.   ....  ",
" @.+.++. .+.+.@ ",
"@#.+.$++.+$.+.#%",
"@#.+.++$.++.+.#%",
"@#.+.$++.+$.+.#%",
"@#.+.++$.++.+.#%",
"@#.+.$++.+$.+.#%",
"@#.+.++$.+..+.#%",
"@#.+..++..+++.#%",
"@######+.######%",
" %%%%%%##%%%%%% ",
"      %%%%      ",
"                "};
