/* XPM */
static char * calc_xpm[] = {
"16 16 8 1",
" 	c None",
".	c #BABDB6",
"+	c #EEEEEC",
"@	c #000000",
"#	c #555753",
"$	c #888A85",
"%	c #D3D7CF",
"&	c #2E3436",
"  ............  ",
"  .+++++++++.@  ",
"  .+########.@  ",
"  .+$$$$$$$$.@  ",
"  .+.........@  ",
"  .+%%%%%%%%.@  ",
"  .+$$%$$%$$.@  ",
"  .+&&%&&%&&.@  ",
"  .+%%%%%%%%.@  ",
"  .+$$%$$%$$.@  ",
"  .+&&%&&%&&.@  ",
"  .+%%%%%%%%.@  ",
"  .+$$%$$%$$.@  ",
"  .+&&%&&%&&.@  ",
"  ...........@  ",
"  @@@@@@@@@@@@  "};
