/* XPM */
static char * certificate_xpm[] = {
"16 16 10 1",
" 	c None",
".	c #4E9A06",
"+	c #EEEEEC",
"@	c #8AE234",
"#	c #000000",
"$	c #FCE94F",
"%	c #C4A000",
"&	c #204A87",
"*	c #AD7FA8",
"=	c #BABDB6",
"                ",
"                ",
"................",
".+@@@+@@@+@@@+.#",
".@++++++++++++.#",
".@+$%$++&+++++.#",
".++%*%++&+++++=#",
".@+$%$+&&&&&&+.#",
".@+++++++++&++.#",
".+++++++++++++=#",
".@+&&&&&&&&&&+.#",
".@++++++++++++.#",
".=...=...=...=.#",
"################",
"                ",
"                "};
