/* XPM */
static char * doom_xpm[] = {
"16 16 15 1",
" 	c None",
".	c #BABDB6",
"+	c #000000",
"@	c #D3D7CF",
"#	c #A40000",
"$	c #EF2929",
"%	c #EEEEEC",
"&	c #4E9A06",
"*	c #8AE234",
"=	c #CC0000",
"-	c #2E3436",
";	c #73D216",
">	c #204A87",
",	c #3465A4",
"'	c #729FCF",
" .+  @####@  .+ ",
" .@+#@@$$@@+.@+ ",
" .@%.$$&&$#.@%+ ",
" .@%.$&**&=.@%+ ",
" #..$&*--;&=..+ ",
" #$$$&*--;&=##+ ",
"#$$$$$&;;&=#=##+",
"#$>%$=$&&===%>#+",
"#$>%>%=$==%>%>#+",
"#=>,'%>%%>%',>#+",
" #=>%,%''%,%>#+ ",
" #==%>%,,%>%##+ ",
"  #==#%>>%=##+  ",
"  ##==#=####++  ",
"    ######++    ",
"      ++++      "};
