/* XPM */
static char * earth_xpm[] = {
"16 16 10 1",
" 	c None",
".	c #204A87",
"+	c #8AE234",
"@	c #73D216",
"#	c #4E9A06",
"$	c #3465A4",
"%	c #000000",
"&	c #D3D7CF",
"*	c #729FCF",
"=	c #EEEEEC",
"      ....      ",
"    ..+@#$%%    ",
"  ..&&@##*..%%  ",
"  .==&##*$$#+%  ",
" .&=&**#$*$$#@% ",
" .&&#**$*$$#@@% ",
".***#*$*$$$.#..%",
".***###$*$$$.##%",
".*$##++#$$$.#+@%",
".$*#+@@@#$.$#@@%",
" .$#+@@@#.$.$#% ",
" .$$#@@@#$.$.#% ",
"  .$#@@#$.$..%  ",
"  ..$#@#....%%  ",
"    ..#...%%    ",
"      %%%%      "};
