/* XPM */
static char * gear_xpm[] = {
"16 16 5 1",
" 	c None",
".	c #555753",
"+	c #BABDB6",
"@	c #000000",
"#	c #888A85",
"      ....      ",
"      .+.@      ",
"  .   .+.@   @  ",
" .+. .+##.@ @.@ ",
".+#+.+####.@.#.@",
" .+#+######.#.@ ",
"  .+###@@###.@  ",
"   .+#@  .#.@   ",
"   .+#@  .#.@   ",
"  .+###..###.@  ",
" .+#+######.#.@ ",
".+#+.+####.@.#.@",
" .+. .+##.@ @.@ ",
"  .   .+.@   @  ",
"      ...@      ",
"      @@@@      "};
