/* XPM */
static char * hack_xpm[] = {
"16 16 7 1",
" 	c None",
".	c #555753",
"+	c #EEEEEC",
"@	c #000000",
"#	c #BABDB6",
"$	c #3465A4",
"%	c #729FCF",
"   ..........   ",
"...+@+++###@#@. ",
".+@+++++#####@#@",
".+#+$$$$$%$%#@#@",
".+#+$$$$%$%$#@#@",
"@@@+$$$$$%$%#@@@",
"  .+$$$$%$%$#@  ",
"  .+$$$$$%$%#@  ",
"  .+$$$$%$%$#@  ",
"   .+$$$$%$%@   ",
"   .+$$$%$%#@   ",
"  .+.+$$$%#@#.  ",
" .+++@+$%#@###. ",
".+++#@.+#@.####@",
" @+#@  @@  @##@ ",
"  @@        @@  "};
