/* XPM */
static char * music_playpause_xpm[] = {
"16 16 5 1",
" 	c None",
".	c #C4A000",
"+	c #FCE94F",
"@	c #000000",
"#	c #EDD400",
"                ",
"                ",
"                ",
"                ",
" ..   .... .... ",
" .+@  .+#@ .+#@ ",
" .+.@ .+#@ .+#@ ",
" .+#.@.+#@ .+#@ ",
" .+#.@.+#@ .+#@ ",
" .+.@ .+#@ .+#@ ",
" ..@  ...@ ...@ ",
" @@   @@@@ @@@@ ",
"                ",
"                ",
"                ",
"                "};
