/* XPM */
static char * music_prev_xpm[] = {
"16 16 5 1",
" 	c None",
".	c #C4A000",
"+	c #FCE94F",
"@	c #EDD400",
"#	c #000000",
"                ",
"                ",
"                ",
"                ",
" ....   ..   .. ",
" .+@#  .+#  .+# ",
" .+@# .+.# .+.# ",
" .+@#.+@.#.+@.# ",
" .+@##.@.##.@.# ",
" .+@# #..# #..# ",
" ...#  #.#  #.# ",
" ####   ##   ## ",
"                ",
"                ",
"                ",
"                "};
