/* XPM */
static char * screen_size_xpm[] = {
"16 16 10 1",
" 	c None",
".	c #2E3436",
"+	c #CE5C00",
"@	c #000000",
"#	c #888A85",
"$	c #F57900",
"%	c #729FCF",
"&	c #3465A4",
"*	c #204A87",
"=	c #555753",
"                ",
"                ",
"..............+@",
".############$+@",
".#%&%&%&&&&&+++@",
".#&%&&&&&&&$$$+@",
".#%&%&&&&&+$*++@",
".#&&&&&&&$$*&$+@",
".#%&&&&&+$*&*++@",
".#&&&&&$+$+$+$+@",
"......+++++++++@",
"@@@@@@.=.@@@@@@@",
"      .=.@      ",
"     .===.@     ",
"    .......@    ",
"    @@@@@@@@    "};
