/* XPM */
static char * solitaire_xpm[] = {
"16 16 8 1",
" 	c None",
".	c #BABDB6",
"+	c #EEEEEC",
"@	c #000000",
"#	c #D3D7CF",
"$	c #EF2929",
"%	c #CC0000",
"&	c #A40000",
"                ",
"    ........    ",
"   .+++++++.@   ",
"   .+##$$##.@   ",
"   .+##$$##.@   ",
"   .+#$%%&#.@   ",
"   .+#$%%&#.@   ",
"   .+$%%%%&.@   ",
"   .+$%%%%&.@   ",
"   .+#$%%&#.@   ",
"   .+#$%%&#.@   ",
"   .+##&&##.@   ",
"   .+##&&##.@   ",
"   .........@   ",
"    @@@@@@@@    ",
"                "};
