/* XPM */
static char * window_maximize_xpm[] = {
"16 16 6 1",
" 	c None",
".	c #888A85",
"+	c #000000",
"@	c #EEEEEC",
"#	c #BABDB6",
"$	c #2E3436",
"                ",
"   ..........+  ",
"  .@@@@@@@@@@.+ ",
" .@##########@.+",
" .@#$$$$$$$$##.+",
" .@#$$$$$$$$##.+",
" .@#$######$##.+",
" .@#$######$##.+",
" .@#$######$##.+",
" .@#$######$##.+",
" .@#$$$$$$$$##.+",
" .@###########.+",
" +.@#########.+ ",
"  +..........+  ",
"   ++++++++++   ",
"                "};
