/* XPM */
static char * bullets_xpm[] = {
"16 16 5 1",
" 	c None",
".	c #8F5902",
"+	c #E9B96E",
"@	c #000000",
"#	c #C17D11",
"             ...",
"           ..+.@",
"         ..+##.@",
"        .+####@ ",
"       .+####.@ ",
"      .+#####@  ",
"     .+#####.@  ",
"    .+#####.@   ",
"   .+#####.@    ",
"  .+#####.@     ",
" ..+####.@      ",
"@++.+##.@       ",
" @++...@        ",
"  @+.@@         ",
"   @.@          ",
"    @           "};
