/* XPM */
static char * calendar_xpm[] = {
"16 16 9 1",
" 	c None",
".	c #204A87",
"+	c #729FCF",
"@	c #000000",
"#	c #3465A4",
"$	c #C17D11",
"%	c #E9B96E",
"&	c #EEEEEC",
"*	c #CC0000",
"  ..............",
" .++++++++++++.@",
" .+###########.@",
" .............$@",
" $%&&%&&%&&%&&$@",
" $%&&%&&%&&%&&$@",
" $%%%****%%%%%$@",
" $%&&*&&*&&%&&$@",
" $%&&*&&*&&%&&$@",
" $%%%****%%%%%$@",
" $%&&%&&%&&%&&$@",
" $%&&%&&%&&%&&@@",
"$%%%%%%%%%%%%$@@",
"@@@@@@@@@@@@@@$@",
" $%%%%%%%%%%%%$@",
" @@@@@@@@@@@@@@@"};
