/* XPM */
static char * camera_xpm[] = {
"16 16 8 1",
" 	c None",
".	c #555753",
"+	c #EEEEEC",
"@	c #737373",
"#	c #BABDB6",
"$	c #000000",
"%	c #2E3436",
"&	c #888A85",
"                ",
"                ",
"      ......    ",
"     .++++++.   ",
" ....+@...@+... ",
".++++..###..+++$",
"%%%%%.#&&&#.%%%$",
"%+++.#&++&&#.@%$",
"%+#&.#&+&&&#.@%$",
"%+#&.#&&&&&#.@%$",
"%+#&@.#&&&#.@@%$",
"%+#&@..###..@@%$",
"%%%%%%%...%%%%%$",
" $$$$$$$$$$$$$$ ",
"                ",
"                "};
