/* XPM */
static char * desktop_xpm[] = {
"16 16 8 1",
" 	c None",
".	c #204A87",
"+	c #BABDB6",
"@	c #729FCF",
"#	c #EEEEEC",
"$	c #000000",
"%	c #3465A4",
"&	c #D3D7CF",
"                ",
"                ",
".....++++++.....",
".@@@.######.@@@$",
".@%.#&#&#&&#.@%$",
".@.#&#&&&&&&#.@$",
"..#&#&#&&&&&&#.$",
"+#&#&&&&&&&+&++$",
"+##&#&&&&&&&+&+$",
"..#&&&&&&+&+&+.$",
".@.#&&&&&&+&+.@$",
".@@.#&&+&+&+.@%$",
".@%@.++++++.@%%$",
"$$$$$$$$$$$$$$$$",
"                ",
"                "};
