/* XPM */
static char * doom2_xpm[] = {
"16 16 7 1",
" 	c None",
".	c #8F5902",
"+	c #3465A4",
"@	c #000000",
"#	c #CE5C00",
"$	c #729FCF",
"%	c #F57900",
"................",
"..++++++++++++.@",
" @............@ ",
"  @@@@@@@@@@@@  ",
"  #####  #####  ",
"  #$$#@  #$$#@  ",
"  #$%#@  #$%#@  ",
"  #$%#@  #$%#@  ",
"  #$%#@  #$%#@  ",
"  #$%#@  #$%#@  ",
"  ####@  ####@  ",
"  @@@@@  @@@@@  ",
"  ............  ",
" .+++++++++++.@ ",
"...............@",
"@@@@@@@@@@@@@@@@"};
