/* XPM */
static char * game_xpm[] = {
"16 16 9 1",
" 	c None",
".	c #BABDB6",
"+	c #000000",
"@	c #EEEEEC",
"#	c #D3D7CF",
"$	c #2E3436",
"%	c #555753",
"&	c #EF2929",
"*	c #A40000",
"                ",
"                ",
"  ....+  ....+  ",
" .@@@@...@@@@.+ ",
".@#$%#@@@#&*#@.+",
".@%%%$###*&&&#.+",
".@$%%%###&&&*#.+",
".@#%$#####*&##.+",
".@####$#$#####.+",
".@####...#####.+",
".@###.+++.####.+",
".@##.+   +.###.+",
".@##.+    .###.+",
"+...+     +...+ ",
" +++       +++  ",
"                "};
