/* XPM */
static char * help_xpm[] = {
"16 16 5 1",
" 	c None",
".	c #4E9A06",
"+	c #8AE234",
"@	c #73D216",
"#	c #000000",
"     .....      ",
"    .++@@+#     ",
"   .+@@@@@@#    ",
"   .++###+@+#   ",
"    ##   .@+#   ",
"         .@+#   ",
"        .@@#    ",
"       .+@#     ",
"      .+@#      ",
"      .@#       ",
"      .@#       ",
"      .@#       ",
"                ",
"      .@#       ",
"      .@#       ",
"      ###       "};
