/* XPM */
static char * home_xpm[] = {
"16 16 14 1",
" 	c None",
".	c #A40000",
"+	c #EF2929",
"@	c #000000",
"#	c #CC0000",
"$	c #EEEEEC",
"%	c #D3D7CF",
"&	c #BABDB6",
"*	c #2E3436",
"=	c #888A85",
"-	c #555753",
";	c #4E9A06",
">	c #8AE234",
",	c #73D216",
"       ..       ",
"      .++@      ",
"     .+###@     ",
"    .+#..+#@    ",
"   .+#.$$.+#@   ",
"  .+#.$%%&.+#@  ",
" .+#.$%%%%&.+#@ ",
"....$%%%%%%&...@",
"  &$****$%%%&@  ",
"  &$*==*$===&@  ",
"  &$*=-*$=-*&@  ",
"  &$*=-*$***&@  ",
" ;&$*=-*$%%%&@@ ",
";>&&*=-*&&&&&@;@",
";>,,,,,,,,,,,,;@",
"@@@@@@@@@@@@@@@@"};
