/* XPM */
static char * mail_xpm[] = {
"16 16 6 1",
" 	c None",
".	c #B9A29B",
"+	c #FEF9ED",
"@	c #000000",
"#	c #685854",
"$	c #FFEDC8",
"                ",
"                ",
"................",
".+++++++++++++.@",
".+#+$$$$$$$$+#.@",
".+.#+$$$$$$+#..@",
".+$.#+$$$$+#.$.@",
".+$$.#+$$+#.$$.@",
".+$$..#++#..$$.@",
".+$.#+.##.+#.$.@",
".+.#+$$..$$+#..@",
".+#+$$$$$$$$+#.@",
"...............@",
"@@@@@@@@@@@@@@@@",
"                ",
"                "};
