/* XPM */
static char * marble_xpm[] = {
"16 16 7 1",
" 	c None",
".	c #204A87",
"+	c #729FCF",
"@	c #3465A4",
"#	c #000000",
"$	c #D3D7CF",
"%	c #EEEEEC",
"      ....      ",
"    ..+++@##    ",
"  ..$$++@+..##  ",
"  .%%$+++@@@.#  ",
" .$%$+++@+@@@.# ",
" .$$+++@+@@@..# ",
".+++++@+@@@.@..#",
".++++@+@+@@@.@.#",
".+@+@+@+@@@.@..#",
".@+@+@@@@@.@...#",
" .@@@@@@@.@.@.# ",
" .@@@@.@.@.@..# ",
"  .@@.@.@.@..#  ",
"  ..@@.@....##  ",
"    ......##    ",
"      ####      "};
