/* XPM */
static char * music_xpm[] = {
"16 16 4 1",
" 	c None",
".	c #5C3566",
"+	c #75507B",
"@	c #000000",
"                ",
"           .....",
"       ....++++@",
"   ....+++++@++@",
"   .++++@@@@ .+@",
"   .+@@@     .+@",
"   .+@       .+@",
"   .+@       .+@",
"   .+@     ..++@",
"   .+@    .++++@",
"   .+@    .++++@",
" ..++@     @@@@ ",
".++++@          ",
".++++@          ",
" @@@@           ",
"                "};
