/* XPM */
static char * news_xpm[] = {
"16 16 6 1",
" 	c None",
".	c #BABDB6",
"+	c #EEEEEC",
"@	c #000000",
"#	c #2E3436",
"$	c #D3D7CF",
"..............  ",
".+++++++++++.@  ",
".+##########.@  ",
".+##########.@..",
".+$$$$$$$$$$.@$@",
".+##########.@$@",
".+$$$$$$$$$$.@$@",
".+####$$####.@$@",
".+####$$$$$$.@$@",
".+####$$####.@$@",
".+$$$$$$$$$$.@$@",
".+####$$####.@$@",
".+$$$$$$$$$$.@$@",
".+####$$####.@$@",
".............@$@",
" @@@@@@@@@@@@@@ "};
