/* XPM */
static char * overboard_xpm[] = {
"16 16 8 1",
" 	c None",
".	c #BABDB6",
"+	c #A40000",
"@	c #EEEEEC",
"#	c #EF2929",
"$	c #D3D7CF",
"%	c #CC0000",
"&	c #000000",
"     ......     ",
"   ++@@@@@@++   ",
"  +###$$$$###+  ",
" +#%%#+..+#%%+& ",
" +#%%+&&&&+%%+& ",
".@+#+&    &+#+.&",
".@$+&      ++$.&",
".@$.&      .@$.&",
".@$.&      .@$.&",
".@$+&      +#$.&",
".@##++    +#%#.&",
" +#%%#+..+#%%+& ",
" ++%%#+@@+#%%+& ",
"  &+++$$$$+++&  ",
"   &&......&&   ",
"     &&&&&&     "};
