/* XPM */
static char * pepe_xpm[] = {
"16 16 10 1",
" 	c None",
".	c #4E9A06",
"+	c #73D216",
"@	c #000000",
"#	c #D3D7CF",
"$	c #EEEEEC",
"%	c #A40000",
"&	c #EF2929",
"*	c #204A87",
"=	c #3465A4",
" ......   ......",
" .++++.   .+++.@",
"..++++.....+++.@",
".++++##@@++##@@@",
".++++#$@@++#$@@@",
".+++++++++++++.@",
".+++++++++++++.@",
".+++++++++++++.@",
".+++++%%%%%%%%%@",
"....++%&&&&&&&%@",
"***.++%%%%%%@@@@",
"*=*.........@   ",
"*=**********@   ",
"*==========*@   ",
"************@   ",
"@@@@@@@@@@@@@   "};
