/* XPM */
static char * pinball_xpm[] = {
"16 16 8 1",
" 	c None",
".	c #2E3436",
"+	c #EEEEEC",
"@	c #BABDB6",
"#	c #888A85",
"$	c #555753",
"%	c #000000",
"&	c #D3D7CF",
"  ....          ",
" .+@#$.         ",
".@+##$.%        ",
".###$$.%        ",
".##$$$.%        ",
".$$$$..%        ",
" %....%         ",
"  %%%%      @@@ ",
"          @@++@@",
"        @@++&&@%",
"      @@++&&&&@%",
"    @@++&&&@@@@%",
"  @@++&&@@@@%%% ",
" @++&@@@@%%%    ",
" @@@@@%%%       ",
" %%%%%          "};
