/* XPM */
static char * race_xpm[] = {
"16 16 10 1",
" 	c None",
".	c #A40000",
"+	c #2E3436",
"@	c #000000",
"#	c #EF2929",
"$	c #555753",
"%	c #CC0000",
"&	c #EEEEEC",
"*	c #D3D7CF",
"=	c #BABDB6",
"      ....      ",
" ++@ ..##.@ ++@ ",
" +$@..#%%.@.+$@ ",
" +$@%.#%%.@%+$@ ",
" +$@@.#%%.@@+$@ ",
" @@@ .#%%.@ @@@ ",
"     .#%%.@     ",
"     .#%%.@     ",
"     .#%%.@     ",
"    .##&&..@    ",
" ++@.#&**=.@++@ ",
" +$@.#&**=.@+$@ ",
" +$@.#&===.@+$@ ",
" +$@@@....@@+$@ ",
" @@@ +@@@@+ @@@ ",
"     +    +     "};
