/* XPM */
static char * sigil_xpm[] = {
"16 16 4 1",
" 	c None",
".	c #A40000",
"+	c #CC0000",
"@	c #000000",
"                ",
"         ..     ",
"        .++@    ",
"       .+@@     ",
"      .+@@      ",
"     .+@++@     ",
"     .+@@++@    ",
"     .+@ .+@    ",
"     .+@ .+..   ",
"    .+++.++++.. ",
".  .+@@@+@@@+++@",
"+..+@  .+@ .+@+@",
"@+.+...+@+..+@@+",
" @+++++@ @++@  @",
"  @@@@@   @@    ",
"                "};
