/* XPM */
static char * spaceship_xpm[] = {
"16 16 10 1",
" 	c None",
".	c #5C3566",
"+	c #AD7FA8",
"@	c #75507B",
"#	c #000000",
"$	c #D3D7CF",
"%	c #EDD400",
"&	c #F57900",
"*	c #CC0000",
"=	c #CE5C00",
"       ..       ",
"      .++.      ",
"     .+@@.#     ",
"     .+$$.#     ",
"     .+$$.#     ",
"     .+@@.#     ",
"     .+@@.#     ",
"    .++@@+.#    ",
"   .+@+@@+@.#   ",
"  .+@@+@@+@@.#  ",
"  ...%....%..#  ",
"  ##&%&##&%&##  ",
"   *&%&**&%&*   ",
"   *=%=**=%=*   ",
"    *=*  *=*    ",
"     *    *     "};
