/* XPM */
static char * xterm_here_xpm[] = {
"16 16 10 1",
" 	c None",
".	c #737373",
"+	c #D3D7CF",
"@	c #101010",
"#	c #204A87",
"$	c #729FCF",
"%	c #FFFFFF",
"&	c #8AE234",
"*	c #73D216",
"=	c #4E9A06",
"                ",
"................",
".+++++++++++++.@",
".+#$#$#$#$#$#$.@",
".+$#$#$#$#$#$#.@",
".+%%%%%%%%%%%%.@",
".+%@%%%%%%%%%%.@",
".+%%@%%%%%%%%%.@",
".+%@%%%%%&&&&%.@",
".+%%%@@%%&**=%.@",
".+%%%%%%%&**=%.@",
".+%%%%%%%====%.@",
".+%%%%%%%%%%%%.@",
"...............@",
"@@@@@@@@@@@@@@@@",
"                "};
