/* XPM */
static char * xterm_xpm[] = {
"16 16 7 1",
" 	c None",
".	c #737373",
"+	c #D3D7CF",
"@	c #101010",
"#	c #204A87",
"$	c #729FCF",
"%	c #FFFFFF",
"                ",
"................",
".+++++++++++++.@",
".+#$#$#$#$#$#$.@",
".+$#$#$#$#$#$#.@",
".+%%%%%%%%%%%%.@",
".+%@%%%%%%%%%%.@",
".+%%@%%%%%%%%%.@",
".+%@%%%%%%%%%%.@",
".+%%%@@%%%%%%%.@",
".+%%%%%%%%%%%%.@",
".+%%%%%%%%%%%%.@",
".+%%%%%%%%%%%%.@",
"...............@",
"@@@@@@@@@@@@@@@@",
"                "};
