/* XPM */
static char * window_xpm[] = {
"16 16 9 1",
" 	c None",
".	c #204A87",
"+	c #2E3436",
"@	c #3465A4",
"#	c #729FCF",
"$	c #CC0000",
"%	c #000000",
"&	c #BABDB6",
"*	c #D3D7CF",
"                ",
"                ",
"................",
".+++@#@#@#@#$$$%",
".+++#@#@#@#@$$$%",
"...............%",
".@&&&&&&&&&&&&.%",
".@&**********&.%",
".@&**********&.%",
".@&**********&.%",
".@&**********&.%",
".@&&&&&&&&&&&&.%",
"...............%",
"%%%%%%%%%%%%%%%%",
"                ",
"                "};
