/* XPM */
static char * window_close_xpm[] = {
"16 16 6 1",
" 	c None",
".	c #A40000",
"+	c #000000",
"@	c #EF2929",
"#	c #CC0000",
"$	c #BABDB6",
"                ",
"   ..........+  ",
"  .@@@@@@@@@@.+ ",
" .@##########@.+",
" .@#$$####$$##.+",
" .@##$$##$$###.+",
" .@###$$$$####.+",
" .@####$$#####.+",
" .@###$$$$####.+",
" .@##$$##$$###.+",
" .@#$$####$$##.+",
" .@###########.+",
" +.@#########.+ ",
"  +..........+  ",
"   ++++++++++   ",
"                "};
