/* XPM */
static char * www_xpm[] = {
"16 16 6 1",
" 	c None",
".	c #2E3436",
"+	c #204A87",
"@	c #000000",
"#	c #729FCF",
"$	c #3465A4",
"      ....      ",
"    ..+..+@@    ",
"  ..++.##.++@@  ",
"  .##.####.##@  ",
" .............@ ",
" .+$$.#$$#.$$+@ ",
".+$$.#$$$$#.$$+@",
".###.######.###@",
"...............@",
".+$$.#$$$$#.$$+@",
" .+$$.#$$#.$$+@ ",
" .###.####.###@ ",
"  ...........@  ",
"  ..++.##.++@@  ",
"    ..+..+@@    ",
"      @@@@      "};
